# xmcd CD database file
#
# Track frame offsets:
#	150
#	15330
#	25147
#	37004
#	49256
#	60684
#	72733
#	89749
#	106149
#	120531
#	135084
#	149442
#	164495
#	178191
#	190949
#	204192
#	218464
#	232367
#
# Disc length: 3279 seconds
#
# Revision: 0
# Processed by: cddbd v1.4PL0 Copyright (c) Steve Scherf et al.
# Submitted via: CDex 1.50
#
DISCID=060ccd12
DTITLE=Josh White - Blues, spirituals and folk songs, 1932-1945, disc 2
DYEAR=1900
DGENRE=Blues
TTITLE0=Trouble
TTITLE1=Jerry
TTITLE2=Bad housing blues
TTITLE3=Uncle Sam says
TTITLE4=Motherless children
TTITLE5=Joshua fit the battle of Jericho
TTITLE6=Number 12 train
TTITLE7=Saint James infirmary
TTITLE8=Blues in Berlin
TTITLE9=TB blues
TTITLE10=Mean mistreatin' woman
TTITLE11=Jelly jelly
TTITLE12=Evil hearted man
TTITLE13=Backwater blues
TTITLE14=Frankie and Johnny
TTITLE15=John Henry
TTITLE16=I left a good deal in mobile
TTITLE17=Nobody knows when you're down and out
EXTD=
EXTT0=
EXTT1=
EXTT2=
EXTT3=
EXTT4=
EXTT5=
EXTT6=
EXTT7=
EXTT8=
EXTT9=
EXTT10=
EXTT11=
EXTT12=
EXTT13=
EXTT14=
EXTT15=
EXTT16=
EXTT17=
PLAYORDER=
